<?xml version="1.0" encoding="UTF-8" standalone="no"?>
<svg
   xmlns:dc="http://purl.org/dc/elements/1.1/"
   xmlns:cc="http://creativecommons.org/ns#"
   xmlns:rdf="http://www.w3.org/1999/02/22-rdf-syntax-ns#"
   xmlns:svg="http://www.w3.org/2000/svg"
   xmlns="http://www.w3.org/2000/svg"
   xmlns:xlink="http://www.w3.org/1999/xlink"
   xmlns:sodipodi="http://sodipodi.sourceforge.net/DTD/sodipodi-0.dtd"
   xmlns:inkscape="http://www.inkscape.org/namespaces/inkscape"
   width="304.36"
   height="304.36"
   version="1.1"
   id="svg3813"
   sodipodi:docname="closenohover.svg"
   inkscape:version="0.92.1 r15371">
  <metadata
     id="metadata3819">
    <rdf:RDF>
      <cc:Work
         rdf:about="">
        <dc:format>image/svg+xml</dc:format>
        <dc:type
           rdf:resource="http://purl.org/dc/dcmitype/StillImage" />
        <dc:title></dc:title>
      </cc:Work>
    </rdf:RDF>
  </metadata>
  <defs
     id="defs3817">
    <linearGradient
       inkscape:collect="always"
       id="linearGradient4744">
      <stop
         style="stop-color:#000000;stop-opacity:1;"
         offset="0"
         id="stop4740" />
      <stop
         style="stop-color:#000000;stop-opacity:0;"
         offset="1"
         id="stop4742" />
    </linearGradient>
    <linearGradient
       inkscape:collect="always"
       xlink:href="#linearGradient4744"
       id="linearGradient4746"
       x1="31.929993"
       y1="159.67999"
       x2="265.42999"
       y2="159.67999"
       gradientUnits="userSpaceOnUse" />
  </defs>
  <sodipodi:namedview
     pagecolor="#ffffff"
     bordercolor="#666666"
     borderopacity="1"
     objecttolerance="10"
     gridtolerance="10"
     guidetolerance="10"
     inkscape:pageopacity="0"
     inkscape:pageshadow="2"
     inkscape:window-width="1920"
     inkscape:window-height="1017"
     id="namedview3815"
     showgrid="false"
     inkscape:zoom="1.5507952"
     inkscape:cx="86.822475"
     inkscape:cy="159.54503"
     inkscape:window-x="-8"
     inkscape:window-y="-8"
     inkscape:window-maximized="1"
     inkscape:current-layer="svg3813"
     inkscape:snap-bbox="true"
     inkscape:snap-bbox-midpoints="true" />
  <!-- Created with Method Draw - http://github.com/duopixel/Method-Draw/ -->
  <g
     id="g3811"
     transform="matrix(1.2806768,0,0,1.2532709,-38.137208,-47.743852)"
     style="fill-rule:nonzero;stroke:#000000;stroke-width:5.56275558;stroke-miterlimit:4;stroke-dasharray:none;stroke-dashoffset:0;stroke-opacity:1;paint-order:stroke fill markers">
    <title
       id="title3808"
       style="stroke:url(#linearGradient4746)">Layer 1</title>
    <ellipse
       ry="118.5"
       rx="116"
       id="svg_1"
       cy="159.67999"
       cx="148.67999"
       style="fill:none;fill-rule:nonzero;stroke:#000000;stroke-width:5.56275558;stroke-miterlimit:4;stroke-dasharray:none;stroke-dashoffset:0;stroke-opacity:1;paint-order:stroke fill markers" />
  </g>
  <path
     style="fill:#ffffff;fill-opacity:1;fill-rule:evenodd;stroke:#000000;stroke-width:0.45138133;stroke-miterlimit:4;stroke-dasharray:none;stroke-dashoffset:0;stroke-opacity:0;paint-order:stroke fill markers"
     d="m 458.88966,375.68372 c -0.88664,-0.1548 -3.78838,-0.60102 -6.44831,-0.9916 -26.98708,-3.96279 -51.70487,-25.54353 -60.66643,-52.96697 -3.81002,-11.65911 -4.86902,-26.37223 -2.77543,-38.56016 5.56989,-32.42527 31.18758,-58.65601 62.64215,-64.14123 7.02613,-1.22526 19.72168,-1.22526 26.74781,0 18.56779,3.23795 36.06095,14.17142 47.96333,29.97777 10.24919,13.61091 15.72001,30.23378 15.72001,47.76465 0,16.47117 -4.49585,31.31232 -13.61046,44.92922 -4.00247,5.97956 -14.80596,16.97368 -20.31539,20.6739 -8.7396,5.86964 -19.17324,10.23575 -28.87413,12.08281 -5.31171,1.01136 -17.44534,1.7445 -20.38315,1.23161 z m -7.71586,-59.61116 13.88596,-14.23976 13.41713,13.89781 c 7.72936,8.00627 14.08653,14.06582 14.99619,14.29413 1.0489,0.26326 2.00332,0.0124 2.84273,-0.7473 2.69798,-2.44164 1.93405,-3.5695 -12.30244,-18.16332 -7.46137,-7.64864 -13.48247,-14.13321 -13.38023,-14.41016 0.10223,-0.27694 6.20699,-6.73823 13.56611,-14.35841 10.35874,-10.72618 13.38024,-14.2298 13.38024,-15.51518 0,-1.9887 -2.46504,-3.85559 -4.26175,-3.22764 -0.67062,0.23438 -7.31652,6.67288 -14.76866,14.30778 l -13.54935,13.88163 -13.47156,-13.92148 c -7.40936,-7.65682 -14.07329,-14.07884 -14.80873,-14.27116 -1.94111,-0.50761 -4.26783,1.25133 -4.26783,3.22637 0,1.27967 3.03948,4.80206 13.38023,15.50606 7.35913,7.61764 13.46635,14.08837 13.57161,14.37939 0.10526,0.29102 -5.91585,6.77665 -13.38023,14.41251 -14.02621,14.34843 -14.78758,15.44229 -12.50442,17.96515 2.23851,2.47353 3.34656,1.6566 17.655,-13.01642 z"
     id="path159"
     inkscape:connector-curvature="0" />
  <path
     style="fill:#000000;fill-opacity:1;fill-rule:evenodd;stroke:#000000;stroke-width:0.45138133;stroke-miterlimit:4;stroke-dasharray:none;stroke-dashoffset:0;stroke-opacity:0;paint-order:stroke fill markers"
     d="m 93.624906,212.09042 c -4.52382,-2.73824 -4.26603,-4.74607 1.45099,-11.30108 2.02168,-2.318 13.324054,-13.99132 25.116394,-25.9407 11.79234,-11.94938 21.44062,-22.12037 21.44062,-22.6022 0,-0.48183 -9.50319,-10.59361 -21.1182,-22.47063 -20.2817,-20.7392 -30.470964,-31.673674 -30.465834,-32.694032 0.006,-1.231936 2.74448,-4.774924 4.20458,-5.440194 3.39843,-1.548425 5.47996,0.187838 36.280514,30.262576 l 21.46501,20.9592 1.40947,-1.20632 c 0.77522,-0.66347 8.67789,-8.17048 17.5615,-16.68226 28.81156,-27.605542 35.85753,-33.853591 38.17697,-33.853591 1.27166,0 5.35183,4.104008 5.35183,5.383099 0,1.714876 -5.83971,8.142652 -29.07735,32.005542 -12.38,12.7131 -22.50909,23.41957 -22.50909,23.79215 0,0.37259 9.93845,10.77802 22.08544,23.12318 27.52063,27.96961 30.06454,30.90862 29.17617,33.70761 -0.46878,1.47699 -3.30232,3.61615 -5.51797,4.16577 -1.32644,0.32903 -2.73413,-0.65748 -8.9883,-6.29893 -4.07856,-3.67899 -16.30811,-15.4422 -27.1768,-26.14048 -10.86868,-10.69828 -19.98183,-19.45141 -20.25145,-19.45141 -0.26962,0 -9.658,9.07367 -20.86308,20.16371 -20.26104,20.05304 -33.196754,32.07056 -34.514104,32.06425 -0.37942,-0.002 -1.83621,-0.69718 -3.23731,-1.54526 z"
     id="path174"
     inkscape:connector-curvature="0" />
</svg>
