<?xml version="1.0" encoding="UTF-8" standalone="no"?>
<!-- Generator: Adobe Illustrator 16.0.0, SVG Export Plug-In . SVG Version: 6.00 Build 0)  -->

<svg
   xmlns:dc="http://purl.org/dc/elements/1.1/"
   xmlns:cc="http://creativecommons.org/ns#"
   xmlns:rdf="http://www.w3.org/1999/02/22-rdf-syntax-ns#"
   xmlns:svg="http://www.w3.org/2000/svg"
   xmlns="http://www.w3.org/2000/svg"
   xmlns:sodipodi="http://sodipodi.sourceforge.net/DTD/sodipodi-0.dtd"
   xmlns:inkscape="http://www.inkscape.org/namespaces/inkscape"
   version="1.1"
   id="Capa_1"
   x="0px"
   y="0px"
   width="284.929px"
   height="284.929px"
   viewBox="0 0 284.929 284.929"
   style="enable-background:new 0 0 284.929 284.929;"
   xml:space="preserve"
   sodipodi:docname="up-down.svg"
   inkscape:version="0.92.1 r15371"><metadata
     id="metadata49"><rdf:RDF><cc:Work
         rdf:about=""><dc:format>image/svg+xml</dc:format><dc:type
           rdf:resource="http://purl.org/dc/dcmitype/StillImage" /><dc:title></dc:title></cc:Work></rdf:RDF></metadata><defs
     id="defs47" /><sodipodi:namedview
     pagecolor="#ffffff"
     bordercolor="#666666"
     borderopacity="1"
     objecttolerance="10"
     gridtolerance="10"
     guidetolerance="10"
     inkscape:pageopacity="0"
     inkscape:pageshadow="2"
     inkscape:window-width="1920"
     inkscape:window-height="1017"
     id="namedview45"
     showgrid="false"
     inkscape:zoom="0.74404505"
     inkscape:cx="130.15109"
     inkscape:cy="14.418036"
     inkscape:window-x="-8"
     inkscape:window-y="-8"
     inkscape:window-maximized="1"
     inkscape:current-layer="g12" /><g
     id="g12"><path
       d="M 2.8460002,89.644 135.9,222.689 c 1.901,1.903 4.088,2.856 6.562,2.856 2.474,0 4.665,-0.953 6.567,-2.856 L 282.072,89.644 c 1.906,-1.906 2.856,-4.093 2.856,-6.568 0,-2.474 -0.953,-4.664 -2.856,-6.566 L 267.8,62.239 c -1.903,-1.903 -4.093,-2.854 -6.567,-2.854 -2.474,0 -4.664,0.951 -6.567,2.854 L 142.462,174.441 30.254,62.232 c -1.902,-1.903 -4.093,-2.848 -6.563,-2.848 -2.478,0 -4.668,0.951 -6.57,2.848 L 2.8470002,76.509 C 0.9450002,78.411 1.982001e-7,80.602 1.982001e-7,83.075 -9.998018e-4,85.551 0.9440002,87.741 2.8460002,89.644 Z"
       id="path10"
       inkscape:connector-curvature="0" /></g><g
     id="g14" /><g
     id="g16" /><g
     id="g18" /><g
     id="g20" /><g
     id="g22" /><g
     id="g24" /><g
     id="g26" /><g
     id="g28" /><g
     id="g30" /><g
     id="g32" /><g
     id="g34" /><g
     id="g36" /><g
     id="g38" /><g
     id="g40" /><g
     id="g42" /></svg>