<?xml version="1.0" encoding="utf-8"?>
<!-- Generator: Adobe Illustrator 21.0.2, SVG Export Plug-In . SVG Version: 6.00 Build 0)  -->
<svg version="1.1" id="Слой_1" xmlns="http://www.w3.org/2000/svg" xmlns:xlink="http://www.w3.org/1999/xlink" x="0px" y="0px"
	 viewBox="0 0 459 105.6" style="enable-background:new 0 0 459 105.6;" xml:space="preserve">
<style type="text/css">
	.st0{stroke:#000000;stroke-width:3;stroke-miterlimit:10;}
	.st1{fill:#FFFFFF;}
	.st2{fill:none;}
	.st3{stroke:#000000;stroke-width:2;stroke-miterlimit:10;}
	.st4{fill:none;stroke:#000000;stroke-width:2;stroke-miterlimit:10;}
</style>
<g>
	<path class="st0" d="M255.7,45h-1.2c1.4,1.5,2.3,3.3,2.9,5.2v-0.1C257,48.4,256.4,46.6,255.7,45z"/>
	<path class="st1" d="M254.8,49.6c-0.1-0.5-0.2-1-0.3-1.5C254.6,48.6,254.7,49.1,254.8,49.6z"/>
	<path class="st1" d="M232,86.6c0.5-0.5,1-1.1,1.3-1.4c3.3-3.2,6.7-6.1,9.9-8.9C238.9,79.4,235.2,82.9,232,86.6z"/>
	<path class="st0" d="M253.3,45c0.5,1,0.9,2,1.2,3.1c0.1,0.5,0.3,1,0.3,1.5c0.5,3.4-0.1,7.1-2,9.8c-1.5,2.1-3.9,3.9-5.9,5.9
		c-5.7,5.9-12.1,11.6-17.6,17.5c-6.1-5.4-12.3-11.9-18.5-17.9c-2.1-2-4.7-3.9-6-6.1c-1.3-2.1-2-4.3-2-6.5c-0.3-0.9-0.5-1.8-0.5-2.8
		c0-1.6,0.5-3.1,1.3-4.5h-1.3c-0.8,1.5-1.3,3.2-1.6,5v3.3c1.6,8.4,7.6,12.2,12.9,17.4c3.9,3.8,7.6,7.4,11.6,11.3
		c0.8,0.7,2.4,2.6,3.5,3.2c0.1-0.3,0.3-0.4,0.6-0.4c0.2,0,0.4,0.2,0.6,0.4c1.1-0.6,2.7-2.7,3.4-3.4c3.8-4,7.7-7.5,11.4-11.1
		c5.3-5.2,11.1-9.1,12.8-17.4v-3.1c-0.6-1.9-1.5-3.8-2.9-5.2H253.3z"/>
	<path class="st2" d="M229.5,88.8c-0.2-0.3-0.4-0.5-0.7-0.5c-0.3,0-0.5,0.2-0.6,0.4c-0.1-0.1-0.3-0.2-0.5-0.3c0.5,0.5,1,1.1,1.4,1.6
		c0.9-1.2,1.8-2.4,2.8-3.5C231.2,87.4,230.2,88.4,229.5,88.8z"/>
	<path class="st3" d="M227.8,88.5c0.2,0.1,0.3,0.2,0.5,0.3c0.2-0.3,0.4-0.4,0.6-0.4c0.3,0,0.5,0.2,0.7,0.5c0.7-0.4,1.7-1.3,2.5-2.2
		c3.2-3.7,6.9-7.1,11.2-10.3c1-0.9,2-1.7,2.9-2.6c6-5.4,12.5-9.4,14.4-18v-3.2c-1.5-7.6-7.3-14.2-17.2-14.4v1.2
		c4.4,0.1,8.2,2.2,10.7,5.4c0.1,0.1,0.3,0.3,0.4,0.4h1.2c0.8,1.6,1.3,3.4,1.7,5.2v0.1c1.1,4,0.5,8.5-1.9,11.7
		c-1.6,2.1-4.4,4-6.6,6.1c-6.4,6.1-13.6,12-19.8,18.2c-6.9-5.6-13.9-12.3-20.8-18.5c-2.4-2.1-5.3-4-6.8-6.3c-2.9-4.2-2.9-8.9-1-12.9
		c1.7-5.7,7-9.9,13.2-9.9c0.1,0,0.3,0,0.4,0V38c-9.4,0.2-15.9,6.4-17.4,14.3v3.4c1.8,8.7,8.6,12.6,14.6,18c1.2,1.1,2.4,2.1,3.5,3.2
		c0.1,0.1,0.3,0.2,0.4,0.3C219.9,80.6,224.2,84.4,227.8,88.5z"/>
	<path class="st1" d="M228.8,90.8c-3.7-4.2-8-8.1-13-11.7c-0.1-0.1-0.3-0.2-0.4-0.3c3.2,2.9,6.4,5.8,9.8,8.8
		C225.9,88.4,227.5,90,228.8,90.8z"/>
	<path class="st1" d="M228.7,80.7c-6.2-5.2-12.6-11.4-18.8-17.1c-2.1-2-4.8-3.7-6.2-5.8c-5.6-8.3,0.7-18.8,10.6-19.6
		c5.7-0.5,9.5,2.1,12,4.9c0.5,0.5,1.4,1.7,1.9,1.7c1.2,0.1,2.9-2.7,3.8-3.4c5.2-4.2,14.5-3.8,19.3,0.8c4.2,4,4.8,11.5,1.4,16.1
		c-1.5,2-4,3.7-6,5.6C240.9,69.5,234.4,74.9,228.7,80.7z"/>
	<path d="M264,36.3c-12.4-0.8-30.3-2.1-32,7c1.5-1.4,3.4-2.4,5.5-2.9c3.3-1.7,7-2.2,10.8-1.9c2.2,0,4.5,0.2,6.5,0.9
		C310.8,49,399.4,80.7,435,33.3C392.7,72.9,321.5,40.2,264,36.3z"/>
	<path d="M225.7,42.9c-2.3-8.6-19.7-7.3-31.9-6.5c-57.5,3.9-128.7,36.5-171-3C58.5,80.7,147.1,49,203,39.5c2-0.7,4.3-0.9,6.5-0.9
		c3.8-0.3,7.5,0.1,10.8,1.9c1.9,0.5,3.7,1.4,5.1,2.6C225.5,43,225.6,42.9,225.7,42.9z"/>
	<line class="st4" x1="213.4" y1="75.2" x2="229.8" y2="90.1"/>
</g>
</svg>
