<?xml version="1.0" encoding="utf-8"?>
<!-- Generator: Adobe Illustrator 21.0.2, SVG Export Plug-In . SVG Version: 6.00 Build 0)  -->
<svg version="1.1" id="Слой_1" xmlns="http://www.w3.org/2000/svg" xmlns:xlink="http://www.w3.org/1999/xlink" x="0px" y="0px"
	 viewBox="0 0 209.3 65" style="enable-background:new 0 0 209.3 65;" xml:space="preserve">
<style type="text/css">
	.st0{clip-path:url(#SVGID_2_);fill:#231F20;}
	.st1{clip-path:url(#SVGID_2_);fill:none;stroke:#231F20;stroke-miterlimit:10;}
</style>
<g>
	<defs>
		<rect id="SVGID_1_" y="0" width="209.3" height="65"/>
	</defs>
	<clipPath id="SVGID_2_">
		<use xlink:href="#SVGID_1_"  style="overflow:visible;"/>
	</clipPath>
	<path class="st0" d="M88.4,29.7c1.1-1.1,2.2-2.3,3.4-3.6c1.1-1.3,2.2-2.5,3.1-3.6c0.9-1.1,1.7-2.2,2.3-3.2c0.6-1,1-1.7,1.1-2.3
		c0.1-0.3,0.1-0.4-0.1-0.4h-0.4c-0.6,0-1.4,0.4-2.2,1.1c-0.8,0.7-1.7,1.6-2.6,2.8c-0.9,1.1-1.8,2.4-2.8,3.9
		c-0.9,1.4-1.8,2.8-2.6,4.2c-0.8,1.4-1.6,2.8-2.3,4.1c-0.1,0.1-0.1,0.2-0.2,0.3C86.2,31.9,87.3,30.9,88.4,29.7 M71.5,20.8
		c3.5-0.1,6.8-0.5,9.9-1.2c3.1-0.8,6.1-1.8,9.1-3.3c1.3-0.6,2.7-1.4,4-2.3c1.3-0.9,2.5-1.8,3.5-2.8c1-1,1.8-2,2.3-3.1
		c0.6-1.1,0.8-2.1,0.6-3.2c-0.1-0.9-0.4-1.7-1-2.2c-0.6-0.6-1.4-0.9-2.5-0.9c-1.7,0-3.3,0.2-4.8,0.7c-1.6,0.5-3.1,1.1-4.5,1.9
		c-1.4,0.8-2.8,1.7-4,2.6c-1.3,0.9-2.4,1.9-3.4,2.8c-2.1,1.9-3.9,3.7-5.3,5.4C74,17.2,72.7,19,71.5,20.8 M70.8,54.8
		c0.3-0.7,0.7-1.8,1.4-3.1c0.7-1.3,1.4-2.8,2.3-4.4c0.9-1.6,1.8-3.3,2.8-5c0.7-1.3,1.4-2.5,2.1-3.6c-0.5,0.5-1,0.9-1.6,1.4
		c-1.5,1.3-2.9,2.5-4.4,3.9c-1.9,1.5-3.8,3.1-5.6,4.6c-1.8,1.5-3.6,2.9-5.2,4.1c-6.3,4.6-12.6,7.9-19,9.8c-6.4,2-13.1,2.5-20.2,1.5
		h-0.1c-3-0.4-6-1.1-8.9-2.3c-2.9-1.1-5.4-2.6-7.6-4.5c-2.2-1.9-3.8-4.3-5-7.1c-1.2-2.8-1.5-6.1-1-9.9c0.3-2.6,1-5.1,2.1-7.3
		c1.1-2.2,2.5-4.2,4.2-6c1.7-1.8,3.6-3.3,5.8-4.5c2.2-1.3,4.5-2.3,6.9-3c2.4-0.8,4.9-1.2,7.5-1.5c2.6-0.2,5.2-0.1,7.7,0.2
		c2,0.2,3.9,0.8,5.8,1.5c1.9,0.8,3.6,1.8,5,3.1c1.5,1.3,2.6,2.8,3.4,4.5c0.8,1.7,1.1,3.6,0.8,5.7c-0.3,2.7-1.2,5-2.8,7.1
		c-1.5,2-3.4,3.7-5.6,5c-2.2,1.3-4.6,2.2-7.1,2.8c-2.5,0.6-4.9,0.7-7.2,0.4c-1.2-0.2-2.3-0.5-3.5-1c-1.1-0.5-2.1-1.1-3-1.9
		c-0.9-0.8-1.6-1.7-2-2.7c-0.5-1-0.7-2.2-0.5-3.4c0.1-0.8,0.4-1.6,0.7-2.4c0.4-0.8,0.8-1.5,1.2-2.1c0.5-0.6,0.9-1.1,1.4-1.4
		c0.5-0.3,0.9-0.5,1.2-0.4H23c0,0,0,0.1-0.2,0.3c-0.2,0.1-0.4,0.2-0.5,0.3c-0.9,0.8-1.6,1.5-2.1,2.4c-0.5,0.8-0.8,1.9-0.9,3.2
		c-0.2,1.1,0,2.2,0.4,3.1c0.4,0.9,1.1,1.7,1.9,2.4c0.8,0.7,1.8,1.2,2.9,1.6c1.1,0.4,2.2,0.7,3.3,0.8c2.2,0.3,4.5,0.2,7-0.2
		c2.5-0.5,4.7-1.3,6.8-2.5c2.1-1.2,3.9-2.7,5.4-4.6c1.5-1.9,2.4-4.1,2.7-6.6c0.2-2,0-3.8-0.8-5.5c-0.8-1.6-1.9-3-3.3-4.3
		c-1.4-1.2-3-2.2-4.9-3c-1.8-0.8-3.7-1.3-5.6-1.6c-3.8-0.5-7.4-0.4-11.1,0.4c-3.6,0.8-6.9,2.1-9.9,4c-3,1.9-5.5,4.3-7.5,7.3
		c-2,2.9-3.2,6.3-3.7,10.1c-0.4,3.5-0.2,6.6,0.8,9.3c0.9,2.7,2.4,5,4.3,6.9c1.9,1.9,4.2,3.5,6.9,4.6c2.7,1.2,5.5,2,8.6,2.4
		c3.4,0.5,6.8,0.5,10,0.2c3.2-0.3,6.5-1,9.6-2.1c3.2-1,6.3-2.4,9.4-4.1c3.1-1.7,6.2-3.6,9.3-5.7c2.1-1.4,4.2-2.9,6.2-4.5
		c2-1.6,4-3.3,5.9-4.9c1.5-1.3,3.1-2.6,4.6-3.9c-0.6,0.4-1.1,0.7-1.7,1c-0.9,0.6-1.9,1-2.9,1.3c-1,0.3-2,0.5-3,0.5
		c-0.9,0-1.7-0.1-2.5-0.4c-0.8-0.2-1.5-0.6-2.2-1.1c-0.7-0.5-1.2-1.1-1.7-1.8c-0.5-0.8-0.7-1.6-0.9-2.7c-0.2-1.3-0.2-2.7,0-4
		c0.2-1.3,0.5-2.6,0.9-3.8c0.4-1.2,0.9-2.4,1.5-3.5c0.6-1.1,1.1-2.1,1.7-3c-1.4-0.2-2.9-0.4-4.5-0.9c-1.6-0.4-3.1-1-4.5-1.9
		c-1.4-0.8-2.7-1.9-3.7-3.3c-1-1.3-1.7-3-2-4.9c-0.2-1.5-0.1-2.9,0.5-4.1c0.6-1.2,1.3-2.2,2.4-3.1c1-0.8,2.2-1.5,3.5-1.9
		c1.3-0.5,2.7-0.7,4.1-0.7c1.1,0,2.1,0.1,3.1,0.4c1,0.3,1.9,0.7,2.7,1.2c0.8,0.5,1.5,1.2,2,1.9c0.6,0.8,0.9,1.6,1.1,2.6
		c0,0.3,0,0.5-0.1,0.5s-0.1-0.2-0.2-0.5c-0.6-1.7-1.6-3-3.2-3.9c-1.6-0.9-3.4-1.4-5.3-1.4c-1.3,0-2.5,0.2-3.7,0.7
		c-1.1,0.4-2.1,1-2.9,1.8c-0.8,0.8-1.4,1.7-1.8,2.8c-0.4,1.1-0.5,2.3-0.3,3.7c0.2,1.8,0.8,3.3,1.6,4.5c0.9,1.2,1.9,2.3,3.1,3.1
		c1.2,0.8,2.5,1.4,4,1.9c1.4,0.5,2.9,0.8,4.3,0.9c1.5-2.4,3.1-4.5,5-6.4c1.9-1.9,4-3.7,6.2-5.4c1.2-0.9,2.5-1.7,3.9-2.6
		c1.4-0.9,2.9-1.7,4.5-2.4c1.5-0.7,3.1-1.3,4.8-1.7c1.7-0.4,3.4-0.7,5.1-0.7c1.2,0,2.4,0.3,3.6,0.9c1.1,0.6,1.8,1.5,2,2.7
		c0.2,0.9-0.1,2-0.8,3c-0.7,1.1-1.6,2.2-2.8,3.2c-1.2,1-2.5,2-4.1,3c-1.5,0.9-3.1,1.8-4.6,2.5c-1.5,0.7-3.1,1.3-4.6,1.9
		c-1.5,0.6-3.1,1-4.7,1.4c-1.6,0.4-3.2,0.7-5,0.9c-1.7,0.2-3.6,0.3-5.5,0.4c-0.7,1.1-1.3,2.3-2,3.4c-0.7,1.2-1.2,2.4-1.7,3.6
		c-0.5,1.2-0.8,2.5-1,3.9c-0.2,1.3-0.2,2.7,0,4.2c0.2,1.3,0.6,2.3,1.3,3.1c0.7,0.8,1.8,1.2,3.4,1.2c1,0,1.9-0.2,3-0.6
		c1-0.4,2-0.9,3-1.5c1-0.6,1.9-1.3,2.8-2.1c0.6-0.5,1.1-1,1.6-1.5c1.2-1.9,2.4-3.7,3.5-5.5c1.6-2.5,3.2-4.7,4.7-6.7
		c1.5-2,3-3.6,4.3-4.8c1.4-1.2,2.6-1.9,3.8-2.1c0.1-0.2,0.3-0.1,0.5,0c0.2,0.2,0.5,0.4,0.7,0.8c0.2,0.4-0.1,1.3-1.1,2.7
		c-1,1.4-2.3,3.1-3.9,5c-1.6,1.9-3.5,3.9-5.4,5.9c-1.7,1.9-3.4,3.5-4.9,5v0.1c-0.7,1-1.4,2.5-2.2,4.3c-0.8,1.9-1.8,4-3.2,6.5
		c-0.4,0.7-0.8,1.6-1.4,2.7c-0.6,1.1-1.1,2.2-1.7,3.4c-0.6,1.2-1,2.4-1.4,3.6c-0.4,1.2-0.6,2.3-0.6,3.2c0,0.8,0.2,1.5,0.5,2.1
		c0.4,0.6,0.9,0.9,1.7,0.9c1.2,0,2.5-0.4,3.9-1.2c1.4-0.8,2.7-1.8,3.9-3.1c1.2-1.2,2.2-2.6,3-4.1c0.8-1.5,1.2-2.9,1.2-4.3
		c0-0.8-0.2-1.5-0.5-2c-0.3-0.5-0.8-0.8-1.5-0.8c-0.6,0-1.2,0.2-1.8,0.5c-0.6,0.3-1.2,0.8-1.8,1.3c-0.6,0.5-1.1,1.1-1.5,1.8
		c-0.5,0.7-0.8,1.3-1.1,2c-0.2,0.4-0.3,0.7-0.3,0.9c0,0.2,0,0.3-0.1,0.3c-0.1,0-0.1-0.1-0.1-0.3c0-0.3,0.1-0.6,0.2-0.9
		c0.3-0.7,0.7-1.5,1.2-2.2c0.5-0.7,1.1-1.4,1.7-2c0.6-0.6,1.3-1,2-1.4c0.7-0.4,1.4-0.5,2.2-0.5c0.8,0,1.4,0.3,1.9,0.8
		c0.5,0.5,0.8,1.3,0.8,2.4c0,1.2-0.4,2.6-1.2,4.1c-0.8,1.5-1.8,2.9-3,4.2c-1.2,1.3-2.6,2.5-4.1,3.4c-1.5,1-2.9,1.5-4.4,1.7h-0.1
		c-0.2,0-0.4,0.1-0.5,0.1h-0.5c-0.6,0-1.2-0.1-1.7-0.3c-0.6-0.2-1.1-0.5-1.5-0.9c-0.5-0.4-0.8-0.9-1.1-1.6S70,58.7,70,57.8
		C70,56.7,70.2,55.7,70.8,54.8"/>
	<path class="st1" d="M88.4,29.7c1.1-1.1,2.2-2.3,3.4-3.6c1.1-1.3,2.2-2.5,3.1-3.6c0.9-1.1,1.7-2.2,2.3-3.2c0.6-1,1-1.7,1.1-2.3
		c0.1-0.3,0.1-0.4-0.1-0.4h-0.4c-0.6,0-1.4,0.4-2.2,1.1c-0.8,0.7-1.7,1.6-2.6,2.8c-0.9,1.1-1.8,2.4-2.8,3.9
		c-0.9,1.4-1.8,2.8-2.6,4.2c-0.8,1.4-1.6,2.8-2.3,4.1c-0.1,0.1-0.1,0.2-0.2,0.3C86.2,31.9,87.3,30.9,88.4,29.7z M71.5,20.8
		c3.5-0.1,6.8-0.5,9.9-1.2c3.1-0.8,6.1-1.8,9.1-3.3c1.3-0.6,2.7-1.4,4-2.3c1.3-0.9,2.5-1.8,3.5-2.8c1-1,1.8-2,2.3-3.1
		c0.6-1.1,0.8-2.1,0.6-3.2c-0.1-0.9-0.4-1.7-1-2.2c-0.6-0.6-1.4-0.9-2.5-0.9c-1.7,0-3.3,0.2-4.8,0.7c-1.6,0.5-3.1,1.1-4.5,1.9
		c-1.4,0.8-2.8,1.7-4,2.6c-1.3,0.9-2.4,1.9-3.4,2.8c-2.1,1.9-3.9,3.7-5.3,5.4C74,17.2,72.7,19,71.5,20.8z M70.8,54.8
		c0.3-0.7,0.7-1.8,1.4-3.1c0.7-1.3,1.4-2.8,2.3-4.4c0.9-1.6,1.8-3.3,2.8-5c0.7-1.3,1.4-2.5,2.1-3.6c-0.5,0.5-1,0.9-1.6,1.4
		c-1.5,1.3-2.9,2.5-4.4,3.9c-1.9,1.5-3.8,3.1-5.6,4.6c-1.8,1.5-3.6,2.9-5.2,4.1c-6.3,4.6-12.6,7.9-19,9.8c-6.4,2-13.1,2.5-20.2,1.5
		h-0.1c-3-0.4-6-1.1-8.9-2.3c-2.9-1.1-5.4-2.6-7.6-4.5c-2.2-1.9-3.8-4.3-5-7.1c-1.2-2.8-1.5-6.1-1-9.9c0.3-2.6,1-5.1,2.1-7.3
		c1.1-2.2,2.5-4.2,4.2-6c1.7-1.8,3.6-3.3,5.8-4.5c2.2-1.3,4.5-2.3,6.9-3c2.4-0.8,4.9-1.2,7.5-1.5c2.6-0.2,5.2-0.1,7.7,0.2
		c2,0.2,3.9,0.8,5.8,1.5c1.9,0.8,3.6,1.8,5,3.1c1.5,1.3,2.6,2.8,3.4,4.5c0.8,1.7,1.1,3.6,0.8,5.7c-0.3,2.7-1.2,5-2.8,7.1
		c-1.5,2-3.4,3.7-5.6,5c-2.2,1.3-4.6,2.2-7.1,2.8c-2.5,0.6-4.9,0.7-7.2,0.4c-1.2-0.2-2.3-0.5-3.5-1c-1.1-0.5-2.1-1.1-3-1.9
		c-0.9-0.8-1.6-1.7-2-2.7c-0.5-1-0.7-2.2-0.5-3.4c0.1-0.8,0.4-1.6,0.7-2.4c0.4-0.8,0.8-1.5,1.2-2.1c0.5-0.6,0.9-1.1,1.4-1.4
		c0.5-0.3,0.9-0.5,1.2-0.4H23c0,0,0,0.1-0.2,0.3c-0.2,0.1-0.4,0.2-0.5,0.3c-0.9,0.8-1.6,1.5-2.1,2.4c-0.5,0.8-0.8,1.9-0.9,3.2
		c-0.2,1.1,0,2.2,0.4,3.1c0.4,0.9,1.1,1.7,1.9,2.4c0.8,0.7,1.8,1.2,2.9,1.6c1.1,0.4,2.2,0.7,3.3,0.8c2.2,0.3,4.5,0.2,7-0.2
		c2.5-0.5,4.7-1.3,6.8-2.5c2.1-1.2,3.9-2.7,5.4-4.6c1.5-1.9,2.4-4.1,2.7-6.6c0.2-2,0-3.8-0.8-5.5c-0.8-1.6-1.9-3-3.3-4.3
		c-1.4-1.2-3-2.2-4.9-3c-1.8-0.8-3.7-1.3-5.6-1.6c-3.8-0.5-7.4-0.4-11.1,0.4c-3.6,0.8-6.9,2.1-9.9,4c-3,1.9-5.5,4.3-7.5,7.3
		c-2,2.9-3.2,6.3-3.7,10.1c-0.4,3.5-0.2,6.6,0.8,9.3c0.9,2.7,2.4,5,4.3,6.9c1.9,1.9,4.2,3.5,6.9,4.6c2.7,1.2,5.5,2,8.6,2.4
		c3.4,0.5,6.8,0.5,10,0.2c3.2-0.3,6.5-1,9.6-2.1c3.2-1,6.3-2.4,9.4-4.1c3.1-1.7,6.2-3.6,9.3-5.7c2.1-1.4,4.2-2.9,6.2-4.5
		c2-1.6,4-3.3,5.9-4.9c1.5-1.3,3.1-2.6,4.6-3.9c-0.6,0.4-1.1,0.7-1.7,1c-0.9,0.6-1.9,1-2.9,1.3c-1,0.3-2,0.5-3,0.5
		c-0.9,0-1.7-0.1-2.5-0.4c-0.8-0.2-1.5-0.6-2.2-1.1c-0.7-0.5-1.2-1.1-1.7-1.8c-0.5-0.8-0.7-1.6-0.9-2.7c-0.2-1.3-0.2-2.7,0-4
		c0.2-1.3,0.5-2.6,0.9-3.8c0.4-1.2,0.9-2.4,1.5-3.5c0.6-1.1,1.1-2.1,1.7-3c-1.4-0.2-2.9-0.4-4.5-0.9c-1.6-0.4-3.1-1-4.5-1.9
		c-1.4-0.8-2.7-1.9-3.7-3.3c-1-1.3-1.7-3-2-4.9c-0.2-1.5-0.1-2.9,0.5-4.1c0.6-1.2,1.3-2.2,2.4-3.1c1-0.8,2.2-1.5,3.5-1.9
		c1.3-0.5,2.7-0.7,4.1-0.7c1.1,0,2.1,0.1,3.1,0.4c1,0.3,1.9,0.7,2.7,1.2c0.8,0.5,1.5,1.2,2,1.9c0.6,0.8,0.9,1.6,1.1,2.6
		c0,0.3,0,0.5-0.1,0.5s-0.1-0.2-0.2-0.5c-0.6-1.7-1.6-3-3.2-3.9c-1.6-0.9-3.4-1.4-5.3-1.4c-1.3,0-2.5,0.2-3.7,0.7
		c-1.1,0.4-2.1,1-2.9,1.8c-0.8,0.8-1.4,1.7-1.8,2.8c-0.4,1.1-0.5,2.3-0.3,3.7c0.2,1.8,0.8,3.3,1.6,4.5c0.9,1.2,1.9,2.3,3.1,3.1
		c1.2,0.8,2.5,1.4,4,1.9c1.4,0.5,2.9,0.8,4.3,0.9c1.5-2.4,3.1-4.5,5-6.4c1.9-1.9,4-3.7,6.2-5.4c1.2-0.9,2.5-1.7,3.9-2.6
		c1.4-0.9,2.9-1.7,4.5-2.4c1.5-0.7,3.1-1.3,4.8-1.7c1.7-0.4,3.4-0.7,5.1-0.7c1.2,0,2.4,0.3,3.6,0.9c1.1,0.6,1.8,1.5,2,2.7
		c0.2,0.9-0.1,2-0.8,3c-0.7,1.1-1.6,2.2-2.8,3.2c-1.2,1-2.5,2-4.1,3c-1.5,0.9-3.1,1.8-4.6,2.5c-1.5,0.7-3.1,1.3-4.6,1.9
		c-1.5,0.6-3.1,1-4.7,1.4c-1.6,0.4-3.2,0.7-5,0.9c-1.7,0.2-3.6,0.3-5.5,0.4c-0.7,1.1-1.3,2.3-2,3.4c-0.7,1.2-1.2,2.4-1.7,3.6
		c-0.5,1.2-0.8,2.5-1,3.9c-0.2,1.3-0.2,2.7,0,4.2c0.2,1.3,0.6,2.3,1.3,3.1c0.7,0.8,1.8,1.2,3.4,1.2c1,0,1.9-0.2,3-0.6
		c1-0.4,2-0.9,3-1.5c1-0.6,1.9-1.3,2.8-2.1c0.6-0.5,1.1-1,1.6-1.5c1.2-1.9,2.4-3.7,3.5-5.5c1.6-2.5,3.2-4.7,4.7-6.7
		c1.5-2,3-3.6,4.3-4.8c1.4-1.2,2.6-1.9,3.8-2.1c0.1-0.2,0.3-0.1,0.5,0c0.2,0.2,0.5,0.4,0.7,0.8c0.2,0.4-0.1,1.3-1.1,2.7
		c-1,1.4-2.3,3.1-3.9,5c-1.6,1.9-3.5,3.9-5.4,5.9c-1.7,1.9-3.4,3.5-4.9,5v0.1c-0.7,1-1.4,2.5-2.2,4.3c-0.8,1.9-1.8,4-3.2,6.5
		c-0.4,0.7-0.8,1.6-1.4,2.7c-0.6,1.1-1.1,2.2-1.7,3.4c-0.6,1.2-1,2.4-1.4,3.6c-0.4,1.2-0.6,2.3-0.6,3.2c0,0.8,0.2,1.5,0.5,2.1
		c0.4,0.6,0.9,0.9,1.7,0.9c1.2,0,2.5-0.4,3.9-1.2c1.4-0.8,2.7-1.8,3.9-3.1c1.2-1.2,2.2-2.6,3-4.1c0.8-1.5,1.2-2.9,1.2-4.3
		c0-0.8-0.2-1.5-0.5-2c-0.3-0.5-0.8-0.8-1.5-0.8c-0.6,0-1.2,0.2-1.8,0.5c-0.6,0.3-1.2,0.8-1.8,1.3c-0.6,0.5-1.1,1.1-1.5,1.8
		c-0.5,0.7-0.8,1.3-1.1,2c-0.2,0.4-0.3,0.7-0.3,0.9c0,0.2,0,0.3-0.1,0.3c-0.1,0-0.1-0.1-0.1-0.3c0-0.3,0.1-0.6,0.2-0.9
		c0.3-0.7,0.7-1.5,1.2-2.2c0.5-0.7,1.1-1.4,1.7-2c0.6-0.6,1.3-1,2-1.4c0.7-0.4,1.4-0.5,2.2-0.5c0.8,0,1.4,0.3,1.9,0.8
		c0.5,0.5,0.8,1.3,0.8,2.4c0,1.2-0.4,2.6-1.2,4.1c-0.8,1.5-1.8,2.9-3,4.2c-1.2,1.3-2.6,2.5-4.1,3.4c-1.5,1-2.9,1.5-4.4,1.7h-0.1
		c-0.2,0-0.4,0.1-0.5,0.1h-0.5c-0.6,0-1.2-0.1-1.7-0.3c-0.6-0.2-1.1-0.5-1.5-0.9c-0.5-0.4-0.8-0.9-1.1-1.6S70,58.7,70,57.8
		C70,56.7,70.2,55.7,70.8,54.8z"/>
	<path class="st0" d="M115.4,55.2c-0.1,0.6-1.4,1.8-3.9,3.7c-2,1.5-3.6,2.3-5,2.3c-1.1,0-1.7-0.5-1.7-1.5c0-0.7,0.7-2,2.1-3.9
		c-2,1.8-3.3,2.9-4,3.4c-1.8,1.3-3.3,2-4.5,2c-1.1,0-1.7-0.5-1.7-1.4c0-0.2,0-0.5,0.1-0.7h0.1c0.3-1,1-1.5,2.1-1.5
		c0.7,0,1,0.2,1,0.6c0,0.1,0,0.3-0.1,0.6c-0.1,0.3-0.1,0.5-0.1,0.7c0,0,0,0.2,0.1,0.4c0.1,0,0.2,0.1,0.4,0.1c0.8,0,2.6-1.3,5.6-3.8
		c1.9-1.6,3.7-3.3,5.6-4.9c0.3-0.2,0.9-0.4,1.9-0.4c0.3,0,0.5,0.1,0.5,0.2c0,0.1-1,1.3-3,3.7c-2,2.4-3,3.9-3,4.6
		c0.1,0.4,0.3,0.5,0.4,0.5c0.7,0,1.9-0.8,3.6-2.3C113.7,56.1,114.9,55.3,115.4,55.2"/>
	<path class="st1" d="M115.4,55.2c-0.1,0.6-1.4,1.8-3.9,3.7c-2,1.5-3.6,2.3-5,2.3c-1.1,0-1.7-0.5-1.7-1.5c0-0.7,0.7-2,2.1-3.9
		c-2,1.8-3.3,2.9-4,3.4c-1.8,1.3-3.3,2-4.5,2c-1.1,0-1.7-0.5-1.7-1.4c0-0.2,0-0.5,0.1-0.7h0.1c0.3-1,1-1.5,2.1-1.5
		c0.7,0,1,0.2,1,0.6c0,0.1,0,0.3-0.1,0.6c-0.1,0.3-0.1,0.5-0.1,0.7c0,0,0,0.2,0.1,0.4c0.1,0,0.2,0.1,0.4,0.1c0.8,0,2.6-1.3,5.6-3.8
		c1.9-1.6,3.7-3.3,5.6-4.9c0.3-0.2,0.9-0.4,1.9-0.4c0.3,0,0.5,0.1,0.5,0.2c0,0.1-1,1.3-3,3.7c-2,2.4-3,3.9-3,4.6
		c0.1,0.4,0.3,0.5,0.4,0.5c0.7,0,1.9-0.8,3.6-2.3C113.7,56.1,114.9,55.3,115.4,55.2z"/>
	<path class="st0" d="M137.6,55.4c-0.2,0.6-0.9,1.3-2,2.2c-1.1,0.9-2,1.3-2.6,1.3c-0.5,0-0.8-0.1-0.9-0.2c-2.8,1.7-5.2,2.5-7.1,2.5
		c-2,0-3-0.7-3-2.1c0-1,0.4-2,1.1-3c-1.7,0.8-2.8,1.2-3.2,1.2c-0.5,0-0.9-0.1-1.2-0.4c-0.6,0.8-1.2,1.6-1.8,2.4
		c-0.9,1.2-1.6,1.8-2,1.8c-0.6,0-0.9-0.3-0.9-1c0-1,1.1-3,3.3-5.8l-0.9,0.7c-0.8,0.4-1.2,0.6-1.2,0.4l3.6-2.4c0-0.1,0.3-0.3,0.7-0.8
		c1.3-1.3,2.5-2,3.7-2c0.5,0,0.8,0.1,0.9,0.2v0.1l-2,2.5c-1.5,1.8-2.3,2.8-2.4,3c0.1,0.3,0.4,0.4,0.9,0.4c0.6,0,2.3-0.9,5.1-2.8
		c2.8-1.8,5.2-2.8,7.3-2.8h0.3h0.4c-0.1,0.1-0.3,0.2-0.7,0.4c-1.2,0.6-2.8,1.8-4.8,3.7c-2.2,2.1-3.3,3.7-3.3,4.8
		c0,0.5,0.3,0.8,0.9,0.8c1.6,0,3.5-1.1,5.8-3.4c0.1-0.5,0.4-1.2,0.9-2c0.5-0.8,0.9-1.4,1.3-1.6c0.2-0.1,0.5-0.2,0.9-0.5
		c0.1-0.3,0.2-0.7,0.2-1.4c0-0.1,0-0.2-0.1-0.3c-0.1-0.1-0.1-0.2-0.1-0.3c0-0.1,0.1-0.2,0.2-0.2c0.4,0,0.8,0.2,1.1,0.7
		c0.3,0.4,0.5,0.9,0.5,1.4c0,1.5-1.2,3.3-3.6,5.4c0.2,0,0.3,0.1,0.5,0.1c0.8,0,1.7-0.5,2.8-1.6c1-1,1.6-1.6,1.8-1.6L137.6,55.4z"/>
	<path class="st1" d="M137.6,55.4c-0.2,0.6-0.9,1.3-2,2.2c-1.1,0.9-2,1.3-2.6,1.3c-0.5,0-0.8-0.1-0.9-0.2c-2.8,1.7-5.2,2.5-7.1,2.5
		c-2,0-3-0.7-3-2.1c0-1,0.4-2,1.1-3c-1.7,0.8-2.8,1.2-3.2,1.2c-0.5,0-0.9-0.1-1.2-0.4c-0.6,0.8-1.2,1.6-1.8,2.4
		c-0.9,1.2-1.6,1.8-2,1.8c-0.6,0-0.9-0.3-0.9-1c0-1,1.1-3,3.3-5.8l-0.9,0.7c-0.8,0.4-1.2,0.6-1.2,0.4l3.6-2.4c0-0.1,0.3-0.3,0.7-0.8
		c1.3-1.3,2.5-2,3.7-2c0.5,0,0.8,0.1,0.9,0.2v0.1l-2,2.5c-1.5,1.8-2.3,2.8-2.4,3c0.1,0.3,0.4,0.4,0.9,0.4c0.6,0,2.3-0.9,5.1-2.8
		c2.8-1.8,5.2-2.8,7.3-2.8h0.3h0.4c-0.1,0.1-0.3,0.2-0.7,0.4c-1.2,0.6-2.8,1.8-4.8,3.7c-2.2,2.1-3.3,3.7-3.3,4.8
		c0,0.5,0.3,0.8,0.9,0.8c1.6,0,3.5-1.1,5.8-3.4c0.1-0.5,0.4-1.2,0.9-2c0.5-0.8,0.9-1.4,1.3-1.6c0.2-0.1,0.5-0.2,0.9-0.5
		c0.1-0.3,0.2-0.7,0.2-1.4c0-0.1,0-0.2-0.1-0.3c-0.1-0.1-0.1-0.2-0.1-0.3c0-0.1,0.1-0.2,0.2-0.2c0.4,0,0.8,0.2,1.1,0.7
		c0.3,0.4,0.5,0.9,0.5,1.4c0,1.5-1.2,3.3-3.6,5.4c0.2,0,0.3,0.1,0.5,0.1c0.8,0,1.7-0.5,2.8-1.6c1-1,1.6-1.6,1.8-1.6L137.6,55.4z"/>
	<path class="st0" d="M143.9,42.8c0.1-1.1,0.5-2,1.2-2.9c0.7-0.8,1.5-1.6,2.6-2.1c1.1-0.6,2.3-1,3.7-1.3c1.4-0.3,2.8-0.4,4.4-0.4
		c1.5,0,3.1,0.2,4.9,0.4c1.7,0.3,3.4,0.5,5,0.8c1.4,0.2,2.9,0.5,4.6,0.7c1.7,0.2,3.5,0.4,5.4,0.5c2.6,0.1,4.8-0.1,6.5-0.8
		c1.7-0.6,2.7-1.6,2.9-3c0.2-1.3-0.3-2.4-1.5-3.4c-1.3-1-3.1-1.5-5.5-1.5c-1.7,0-3.1,0.3-4.5,0.9c-1.3,0.6-2.3,1.3-3.1,2.2
		c-0.4,0.4-0.7,1-0.9,1.6c-0.1,0.3-0.1,0.5-0.1,0.6c0,0.1-0.1,0.2-0.1,0.2c-0.1,0-0.2-0.3-0.1-0.8c0.1-0.7,0.4-1.4,0.9-2
		c0.8-1,1.8-1.8,3.1-2.5c1.3-0.7,3-1,4.9-1c1.3,0,2.4,0.1,3.4,0.4c1,0.3,1.9,0.7,2.6,1.2c0.7,0.6,1.2,1.2,1.5,2
		c0.3,0.8,0.4,1.7,0.2,2.7c-0.2,0.8-0.5,1.6-1.2,2.2c-0.6,0.6-1.4,1.1-2.3,1.5c-0.9,0.4-2.1,0.7-3.3,0.9c-1.3,0.2-2.6,0.2-4,0.2
		c-1.8,0-3.5-0.1-5-0.4c-1.6-0.3-3.4-0.6-5.4-1c-1.6-0.3-3.2-0.6-4.8-0.9c-1.6-0.3-3.2-0.5-4.8-0.5c-1.3-0.1-2.6,0-3.8,0.2
		c-1.2,0.2-2.3,0.5-3.2,1s-1.7,1-2.3,1.8c-0.6,0.7-1,1.5-1.1,2.5c-0.1,1.1,0,2.2,0.3,3.4c0.3,1.2,1,2.3,2.2,3.3
		c0.6,0.5,1.1,0.9,1.6,1.3c0.5,0.4,0.8,0.8,1,1.4c0.2,0.9,0,1.9-0.8,3.1c-0.8,1.2-1.8,2.2-3.2,3.2c-2.6,1.9-4.8,2.9-6.6,2.9
		c-1.9,0-2.9-0.7-2.9-2.2c0-1.5,0.6-2.9,1.7-4.1v-0.1c-1,1-1.7,1.5-1.9,1.5l-0.1-0.1v-0.1l0.1-0.2c1.3-1.3,3-2.6,5.1-3.7
		c2.2-1.2,4.1-1.8,5.7-1.8c0.2,0,0.3,0.1,0.4,0.3c0,0-0.3,0.2-0.7,0.4c-0.6,0.3-1.3,0.8-2.1,1.4c-0.8,0.6-1.6,1.4-2.6,2.3
		c-2,2.1-3,3.7-3,4.9c0,0.6,0.3,0.8,0.8,0.8c1.5,0,3.3-1.1,5.4-3.4c1.1-1.1,1.9-2.1,2.4-3c0.5-0.9,0.7-1.7,0.7-2.5
		c0-0.5-0.2-0.9-0.7-1.3c-0.5-0.4-1-0.9-1.5-1.5c-0.6-0.6-1-1.4-1.5-2.4C143.9,45.9,143.8,44.5,143.9,42.8"/>
	<path class="st1" d="M143.9,42.8c0.1-1.1,0.5-2,1.2-2.9c0.7-0.8,1.5-1.6,2.6-2.1c1.1-0.6,2.3-1,3.7-1.3c1.4-0.3,2.8-0.4,4.4-0.4
		c1.5,0,3.1,0.2,4.9,0.4c1.7,0.3,3.4,0.5,5,0.8c1.4,0.2,2.9,0.5,4.6,0.7c1.7,0.2,3.5,0.4,5.4,0.5c2.6,0.1,4.8-0.1,6.5-0.8
		c1.7-0.6,2.7-1.6,2.9-3c0.2-1.3-0.3-2.4-1.5-3.4c-1.3-1-3.1-1.5-5.5-1.5c-1.7,0-3.1,0.3-4.5,0.9c-1.3,0.6-2.3,1.3-3.1,2.2
		c-0.4,0.4-0.7,1-0.9,1.6c-0.1,0.3-0.1,0.5-0.1,0.6c0,0.1-0.1,0.2-0.1,0.2c-0.1,0-0.2-0.3-0.1-0.8c0.1-0.7,0.4-1.4,0.9-2
		c0.8-1,1.8-1.8,3.1-2.5c1.3-0.7,3-1,4.9-1c1.3,0,2.4,0.1,3.4,0.4c1,0.3,1.9,0.7,2.6,1.2c0.7,0.6,1.2,1.2,1.5,2
		c0.3,0.8,0.4,1.7,0.2,2.7c-0.2,0.8-0.5,1.6-1.2,2.2c-0.6,0.6-1.4,1.1-2.3,1.5c-0.9,0.4-2.1,0.7-3.3,0.9c-1.3,0.2-2.6,0.2-4,0.2
		c-1.8,0-3.5-0.1-5-0.4c-1.6-0.3-3.4-0.6-5.4-1c-1.6-0.3-3.2-0.6-4.8-0.9c-1.6-0.3-3.2-0.5-4.8-0.5c-1.3-0.1-2.6,0-3.8,0.2
		c-1.2,0.2-2.3,0.5-3.2,1s-1.7,1-2.3,1.8c-0.6,0.7-1,1.5-1.1,2.5c-0.1,1.1,0,2.2,0.3,3.4c0.3,1.2,1,2.3,2.2,3.3
		c0.6,0.5,1.1,0.9,1.6,1.3c0.5,0.4,0.8,0.8,1,1.4c0.2,0.9,0,1.9-0.8,3.1c-0.8,1.2-1.8,2.2-3.2,3.2c-2.6,1.9-4.8,2.9-6.6,2.9
		c-1.9,0-2.9-0.7-2.9-2.2c0-1.5,0.6-2.9,1.7-4.1v-0.1c-1,1-1.7,1.5-1.9,1.5l-0.1-0.1v-0.1l0.1-0.2c1.3-1.3,3-2.6,5.1-3.7
		c2.2-1.2,4.1-1.8,5.7-1.8c0.2,0,0.3,0.1,0.4,0.3c0,0-0.3,0.2-0.7,0.4c-0.6,0.3-1.3,0.8-2.1,1.4c-0.8,0.6-1.6,1.4-2.6,2.3
		c-2,2.1-3,3.7-3,4.9c0,0.6,0.3,0.8,0.8,0.8c1.5,0,3.3-1.1,5.4-3.4c1.1-1.1,1.9-2.1,2.4-3c0.5-0.9,0.7-1.7,0.7-2.5
		c0-0.5-0.2-0.9-0.7-1.3c-0.5-0.4-1-0.9-1.5-1.5c-0.6-0.6-1-1.4-1.5-2.4C143.9,45.9,143.8,44.5,143.9,42.8z"/>
	<path class="st0" d="M167.9,55.2c-0.1,0.6-1.4,1.8-3.9,3.7c-2,1.5-3.6,2.3-5,2.3c-1.1,0-1.7-0.5-1.7-1.5c0-0.7,0.7-2,2.1-3.9
		c-2,1.8-3.3,2.9-4,3.4c-1.8,1.3-3.3,2-4.5,2c-1.1,0-1.7-0.5-1.7-1.4c0-0.2,0-0.5,0.1-0.7h0.1c0.3-1,1-1.5,2.1-1.5
		c0.7,0,1,0.2,1,0.6c0,0.1,0,0.3-0.1,0.6c-0.1,0.3-0.1,0.5-0.1,0.7c0,0,0,0.2,0.1,0.4c0.1,0,0.2,0.1,0.4,0.1c0.8,0,2.6-1.3,5.6-3.8
		c1.9-1.6,3.7-3.3,5.6-4.9c0.3-0.2,0.9-0.4,1.9-0.4c0.3,0,0.5,0.1,0.5,0.2c0,0.1-1,1.3-3,3.7c-2,2.4-3,3.9-3,4.6
		c0.1,0.4,0.3,0.5,0.4,0.5c0.7,0,1.9-0.8,3.6-2.3C166.2,56.1,167.4,55.3,167.9,55.2"/>
	<path class="st1" d="M167.9,55.2c-0.1,0.6-1.4,1.8-3.9,3.7c-2,1.5-3.6,2.3-5,2.3c-1.1,0-1.7-0.5-1.7-1.5c0-0.7,0.7-2,2.1-3.9
		c-2,1.8-3.3,2.9-4,3.4c-1.8,1.3-3.3,2-4.5,2c-1.1,0-1.7-0.5-1.7-1.4c0-0.2,0-0.5,0.1-0.7h0.1c0.3-1,1-1.5,2.1-1.5
		c0.7,0,1,0.2,1,0.6c0,0.1,0,0.3-0.1,0.6c-0.1,0.3-0.1,0.5-0.1,0.7c0,0,0,0.2,0.1,0.4c0.1,0,0.2,0.1,0.4,0.1c0.8,0,2.6-1.3,5.6-3.8
		c1.9-1.6,3.7-3.3,5.6-4.9c0.3-0.2,0.9-0.4,1.9-0.4c0.3,0,0.5,0.1,0.5,0.2c0,0.1-1,1.3-3,3.7c-2,2.4-3,3.9-3,4.6
		c0.1,0.4,0.3,0.5,0.4,0.5c0.7,0,1.9-0.8,3.6-2.3C166.2,56.1,167.4,55.3,167.9,55.2z"/>
	<path class="st0" d="M190.1,55.4c-0.2,0.6-0.9,1.3-2,2.2c-1.1,0.9-2,1.3-2.6,1.3c-0.5,0-0.8-0.1-0.9-0.2c-2.8,1.7-5.2,2.5-7.1,2.5
		c-2,0-3-0.7-3-2.1c0-1,0.4-2,1.1-3c-1.7,0.8-2.8,1.2-3.2,1.2c-0.5,0-0.9-0.1-1.2-0.4c-0.6,0.8-1.2,1.6-1.8,2.4
		c-0.9,1.2-1.6,1.8-2,1.8c-0.6,0-1-0.3-1-1c0-1,1.1-3,3.3-5.8l-0.9,0.7c-0.8,0.4-1.2,0.6-1.2,0.4L171,53c0-0.1,0.3-0.3,0.7-0.8
		c1.3-1.3,2.5-2,3.7-2c0.5,0,0.8,0.1,0.9,0.2v0.1l-2,2.5c-1.5,1.8-2.3,2.8-2.4,3c0.1,0.3,0.4,0.4,0.9,0.4c0.6,0,2.3-0.9,5.1-2.8
		c2.8-1.8,5.2-2.8,7.3-2.8h0.3h0.4c-0.1,0.1-0.3,0.2-0.7,0.4c-1.2,0.6-2.8,1.8-4.8,3.7c-2.2,2.1-3.3,3.7-3.3,4.8
		c0,0.5,0.3,0.8,0.9,0.8c1.6,0,3.5-1.1,5.8-3.4c0.1-0.5,0.4-1.2,0.9-2c0.5-0.8,0.9-1.4,1.3-1.6c0.2-0.1,0.5-0.2,0.9-0.5
		c0.1-0.3,0.2-0.7,0.2-1.4c0-0.1,0-0.2-0.1-0.3c-0.1-0.1-0.1-0.2-0.1-0.3c0-0.1,0.1-0.2,0.2-0.2c0.4,0,0.8,0.2,1.1,0.7
		c0.3,0.4,0.5,0.9,0.5,1.4c0,1.5-1.2,3.3-3.6,5.4c0.2,0,0.3,0.1,0.5,0.1c0.8,0,1.7-0.5,2.8-1.6c1-1,1.6-1.6,1.8-1.6L190.1,55.4z"/>
	<path class="st1" d="M190.1,55.4c-0.2,0.6-0.9,1.3-2,2.2c-1.1,0.9-2,1.3-2.6,1.3c-0.5,0-0.8-0.1-0.9-0.2c-2.8,1.7-5.2,2.5-7.1,2.5
		c-2,0-3-0.7-3-2.1c0-1,0.4-2,1.1-3c-1.7,0.8-2.8,1.2-3.2,1.2c-0.5,0-0.9-0.1-1.2-0.4c-0.6,0.8-1.2,1.6-1.8,2.4
		c-0.9,1.2-1.6,1.8-2,1.8c-0.6,0-1-0.3-1-1c0-1,1.1-3,3.3-5.8l-0.9,0.7c-0.8,0.4-1.2,0.6-1.2,0.4L171,53c0-0.1,0.3-0.3,0.7-0.8
		c1.3-1.3,2.5-2,3.7-2c0.5,0,0.8,0.1,0.9,0.2v0.1l-2,2.5c-1.5,1.8-2.3,2.8-2.4,3c0.1,0.3,0.4,0.4,0.9,0.4c0.6,0,2.3-0.9,5.1-2.8
		c2.8-1.8,5.2-2.8,7.3-2.8h0.3h0.4c-0.1,0.1-0.3,0.2-0.7,0.4c-1.2,0.6-2.8,1.8-4.8,3.7c-2.2,2.1-3.3,3.7-3.3,4.8
		c0,0.5,0.3,0.8,0.9,0.8c1.6,0,3.5-1.1,5.8-3.4c0.1-0.5,0.4-1.2,0.9-2c0.5-0.8,0.9-1.4,1.3-1.6c0.2-0.1,0.5-0.2,0.9-0.5
		c0.1-0.3,0.2-0.7,0.2-1.4c0-0.1,0-0.2-0.1-0.3c-0.1-0.1-0.1-0.2-0.1-0.3c0-0.1,0.1-0.2,0.2-0.2c0.4,0,0.8,0.2,1.1,0.7
		c0.3,0.4,0.5,0.9,0.5,1.4c0,1.5-1.2,3.3-3.6,5.4c0.2,0,0.3,0.1,0.5,0.1c0.8,0,1.7-0.5,2.8-1.6c1-1,1.6-1.6,1.8-1.6L190.1,55.4z"/>
	<path class="st0" d="M193.9,59c0,0.6-0.4,1.1-1.2,1.7c-0.8,0.6-1.5,0.8-2,0.8c-0.2-0.2-0.2-0.5-0.2-0.9c0-1.5,0.8-2.3,2.6-2.3
		C193.6,58.3,193.9,58.5,193.9,59"/>
	<path class="st1" d="M193.9,59c0,0.6-0.4,1.1-1.2,1.7c-0.8,0.6-1.5,0.8-2,0.8c-0.2-0.2-0.2-0.5-0.2-0.9c0-1.5,0.8-2.3,2.6-2.3
		C193.6,58.3,193.9,58.5,193.9,59z"/>
	<path class="st0" d="M201.4,59c0,0.6-0.4,1.1-1.2,1.7c-0.8,0.6-1.5,0.8-2,0.8c-0.2-0.2-0.2-0.5-0.2-0.9c0-1.5,0.9-2.3,2.6-2.3
		C201.1,58.3,201.4,58.5,201.4,59"/>
	<path class="st1" d="M201.4,59c0,0.6-0.4,1.1-1.2,1.7c-0.8,0.6-1.5,0.8-2,0.8c-0.2-0.2-0.2-0.5-0.2-0.9c0-1.5,0.9-2.3,2.6-2.3
		C201.1,58.3,201.4,58.5,201.4,59z"/>
	<path class="st0" d="M208.8,59c0,0.6-0.4,1.1-1.2,1.7c-0.8,0.6-1.5,0.8-2,0.8c-0.2-0.2-0.2-0.5-0.2-0.9c0-1.5,0.8-2.3,2.6-2.3
		C208.5,58.3,208.8,58.5,208.8,59"/>
	<path class="st1" d="M208.8,59c0,0.6-0.4,1.1-1.2,1.7c-0.8,0.6-1.5,0.8-2,0.8c-0.2-0.2-0.2-0.5-0.2-0.9c0-1.5,0.8-2.3,2.6-2.3
		C208.5,58.3,208.8,58.5,208.8,59z"/>
</g>
</svg>
