<svg xmlns="http://www.w3.org/2000/svg" viewBox="0 0 396.97 92"><defs><style>.cls-1{fill:#202e48;stroke:#fff;stroke-miterlimit:10;stroke-width:3px;}.cls-2{fill:#fff;fill-rule:evenodd;}.cls-3{font-size:17.55px;fill:#f5f5f5;font-family:MyriadPro-Semibold, MyriadPro Semibold;font-weight:700;}.cls-4{letter-spacing:0em;}.cls-5{letter-spacing:0.01em;}.cls-6{letter-spacing:0.02em;}.cls-7{letter-spacing:-0.01em;}.cls-8{letter-spacing:0.01em;}.cls-9{letter-spacing:0em;}.cls-10{letter-spacing:0em;}.cls-11{letter-spacing:0em;}</style></defs><title>Ресурс 2</title><g id="Слой_2" data-name="Слой 2"><g id="Слой_1-2" data-name="Слой 1"><ellipse class="cls-1" cx="149.87" cy="34.08" rx="29.82" ry="30.31"/><path class="cls-2" d="M149.87,24.68c2.21-3.81,8.32.08,7.38,4.38a77.51,77.51,0,0,1-14.75,0C141.59,24.9,147.45,20.78,149.87,24.68Zm-2.78-.14c-1.6-.08-3,1.47-3.06,3.39h11.69c-.14-2.06-1.62-3.76-3.48-3.39-1.14.23-1.29,1.83-2.5,2C148.7,25.91,148.48,24.61,147.09,24.54Z"/><path class="cls-2" d="M150.15,33a5.25,5.25,0,0,1,.14,3.11c.18,1.14,4.83,2,4.73,3.39s-2.12,0-2.64-.28c-1.13-.67-1.73-1.1-2.64-1.56A16.66,16.66,0,0,0,147,39.24c-.77.46-1.93,1.57-2.64.43.85-1.77,3.14-2.08,4.59-3.25C149.11,35.08,148.18,32.58,150.15,33Z"/><path class="cls-2" d="M139.85,44.9c2.16-3.78,8.4,0,7.38,4.38-4.28.56-10.1.29-14.61.14C131.52,45.09,137.49,41.06,139.85,44.9Zm-2.5,0c-1.63-.21-3.13,1-3.34,3.25H145.7c.09-2.37-1.78-3.3-3.48-3.39-.87.58-1.28,1.62-2.37,2C138.75,46.21,138.49,45,137.35,44.9Z"/><path class="cls-2" d="M159.89,44.9c2.14-3.81,8.38.08,7.24,4.53-4.51.14-10.33.42-14.61-.14C151.52,45,157.5,41.09,159.89,44.9Zm-2.64,0c-1.54-.2-3.15,1-3.2,3.25h11.69c-.2-2.15-1.83-3.77-3.62-3.25-1.1.31-1.17,1.62-2.37,1.84C158.66,46.24,158.42,45.05,157.25,44.9Z"/><path class="cls-2" d="M148.48,13.5c2.49-.65,4.45.13,4.73,2.12.4,2.88-.43,7.7-4,7.07a3.67,3.67,0,0,1-2.23-2c-.46-1.39-.7-5.44.14-6.5C147.34,13.9,147.55,13.75,148.48,13.5Zm-.42,2.83c1-.2,1.88-.55,2.09-1.56C148.75,14.54,147.68,15.2,148.06,16.33Zm0,1.7c-.37,4.8,4.57,3.69,3.62-.71C150.43,16.49,149.17,17.54,148.06,18Z"/><path class="cls-2" d="M138.6,33.73c4.13-1.06,4.68,1.38,4.45,4.67-.17,2.44-.55,5-3.76,4.53a3.89,3.89,0,0,1-2.09-1.41,12.24,12.24,0,0,1-.42-6.5C137,34.38,137.51,34,138.6,33.73ZM138,36.56c1-.21,2-.39,2.09-1.56C138.84,34.91,137.86,35.14,138,36.56Zm.14,1.41c-.89,4.83,4.49,4.46,3.48-.42C140.41,36.58,139.67,38,138.18,38Z"/><path class="cls-2" d="M158.5,33.73c4.54-1.16,5.05,2.16,4.45,6.36a3.19,3.19,0,0,1-4.31,2.69c-2.26-.81-2.62-6.31-1.81-7.92A2.29,2.29,0,0,1,158.5,33.73Zm-.56,2.83c1.09-.17,2-.53,2.23-1.56C158.79,34.87,157.82,35.16,157.94,36.56Zm.14,1.41c-.84,4.73,4.52,4.56,3.48-.42C160.33,36.57,159.57,38,158.08,38Z"/><text class="cls-3" transform="translate(125.45 87.62) scale(0.98 1)">С<tspan class="cls-4" x="10.18" y="0">в</tspan><tspan x="19.04" y="0">язи</tspan></text><text class="cls-3" transform="translate(215.83 87.62) scale(0.98 1)">Ва<tspan class="cls-5" x="17.97" y="0">к</tspan><tspan x="26.55" y="0">ансии</tspan></text><text class="cls-3" transform="translate(0 87.62) scale(0.98 1)">На<tspan class="cls-6" x="19.9" y="0">с</tspan><tspan class="cls-7" x="28.05" y="0">т</tspan><tspan x="35.02" y="0">авники</tspan></text><text class="cls-3" transform="translate(305 87.62) scale(0.98 1)">Обья<tspan class="cls-8" x="38.81" y="0">в</tspan><tspan class="cls-9" x="47.7" y="0">лен</tspan><tspan class="cls-10" x="74.98" y="0">и</tspan><tspan class="cls-11" x="84.77" y="0">я</tspan></text><ellipse class="cls-1" cx="252.86" cy="32.64" rx="29.56" ry="30.04"/><path class="cls-2" d="M259.86,23.83c3.63.71,8.66-1.25,10.62.7,1.47,1.46.69,7,.69,10.23v5.46c0,2.32.23,5.08-1.1,5.89s-5.38.28-8,.28h-17c-3.12,0-8,.62-9-1.12s-.28-8.15-.28-10.65c0-2.15-.85-8.55.69-10.09,1.91-1.9,7.14,0,10.48-.7-.09-1.67.23-4.37,3.17-4.34,2.21,0,6.55-.5,8.13.14S260,22.54,259.86,23.83Zm-11.3,0h9.93c0-1,.12-2.18-.41-2.66C255.27,21.27,247.09,19,248.56,23.83Zm13.79,1.4h-8c-5.65,0-11.68-.51-15.86,0-1.59.2-1.23,2-1.24,3.36,3.62,1.74,7.25,3.47,10.75,5.33.58-.28.85-1.41,2.07-1.68a21.67,21.67,0,0,1,6.89,0c1.14.3,1.39,1.28,2.07,1.68,1-.56,2.27-1.23,3.45-1.82s2.51-1.69,3.58-.84c-.39,1.31-2,1.83-3.17,2.38-1.31.63-2.71,1.11-3.86,1.82.21,2.66-6.72,3.14-9.24,2.24-1.21-.43-1.36-1.6-1.93-2.24-3.41-1.91-7.12-3.51-10.62-5.32.18,4.77-.36,10.26.28,14.57,10,.47,22,.47,32,0a132.33,132.33,0,0,0,0-19.06C267.58,25,265,25.23,262.34,25.23ZM249.52,35.6c.36,1.14,7.17,1.35,7.86.28,1.87-2.91-4.9-2.49-6.34-2.24C250.1,33.8,249.06,34.12,249.52,35.6Z"/><path class="cls-2" d="M268.69,29.58c.75,1.49-1.45,2-1.66,1C266.88,29.83,267.75,29.22,268.69,29.58Z"/><ellipse class="cls-1" cx="49" cy="31.54" rx="29.56" ry="30.04"/><path class="cls-2" d="M46.84,19.58c3.46-.77,6.45,0,7.34,2.26.55,1.42.09,3.21,0,4.68a27.5,27.5,0,0,1-.34,5c-1,3.56-7.54,5-9.39.52-.7-1.68-1.13-8.25-.68-9.89A3.7,3.7,0,0,1,46.84,19.58Zm-1.36,5c2.4-.28,4.17-1.19,4.61-3.47C47.15,20.87,44.94,21.34,45.48,24.61Zm5.8-1.39a2.17,2.17,0,0,0,1.37.52,2.06,2.06,0,0,0-.85-2.08A9.55,9.55,0,0,0,51.28,23.22Zm-1.2,1.39a7.87,7.87,0,0,1-4.44,1.73c-1.08,5,2.65,8.78,5.63,6.07,1.56-1.41.93-4.12,1.2-6.77A14.58,14.58,0,0,1,50.08,24.61Z"/><path class="cls-2" d="M59.3,22c6.41-1.77,6.65,3.1,6,8.15-.46,3.43-6,5.58-7.68,1.21C56.92,29.57,56.17,22,59.3,22Zm-.51,3.64c1.35-.3,2.71-.6,2.9-2.08C59.84,23.37,58.56,23.74,58.79,25.65Zm5-.69a.85.85,0,0,0-.34-.87C63.29,24.51,63.05,25,63.74,25ZM59,27.39c.25,1.58-.11,2.87.51,3.82,1.91,2.9,5.31-1.14,4.1-4.34C62,25.46,60.93,27.34,59,27.39Z"/><path class="cls-2" d="M36.6,36.41c1.13-.33,1.27-1.6,2.39-1.91,1.41-.39,2.47.51,4.44.87,1,.18,2.14-.21,2.9,0,.93.26,1.81,2.39,2.56,2.43s1.78-2.16,2.73-2.43c.71-.2,2,.15,2.9,0,2-.33,3-1.2,4.44-.87,1.13.27,1.44,1.29,2.39,1.91.78-.53,1.26-1.37,2-1.91,5.31-.47,7.58,3,7.34,7.63-1.85.46-6.79,0-9.39.17-.16,1.16.63,1.83.17,2.77-7.57.69-17.06.35-24.92.17-.39-.87.11-1.83.17-2.77-2.74-.54-7.16.21-9.39-.35C25.95,36.8,33.65,31.45,36.6,36.41Zm-2.73-.17c-2.6-.59-4.4,1.87-4.78,4.34h8.19a8.52,8.52,0,0,1,3.41-4.34c-2.29-.19-2.16,2.08-3.93,2.43C35.36,38.22,35.23,36.54,33.87,36.23Zm27,4.34c2.67-.12,5.8.23,8.19-.17-.57-2.49-1.79-4.31-4.95-4.16-1.12.66-1.51,2.05-2.9,2.43-1.49-.45-1.82-3-3.92-2.26A6.76,6.76,0,0,1,60.84,40.57Zm-11.61.52c1.07-1.46,2.66-2.39,3.58-4-2.08.21-2.14,2.9-3.92,2.77-1.53-.11-1.72-3-3.76-2.6C46.63,38.42,47.6,40.09,49.23,41.09Zm-6.49-3.64c-.37-.21-2.4,1.2-2.73,1.56-1.05,1.16-1.36,3.1-1.71,4.68H59.64c-.12-3.41-1.68-5.35-4.27-6.24-2.48,1.64-3.87,4.39-6.48,5.9C46.87,41.89,44.86,38.62,42.75,37.45Z"/><path class="cls-2" d="M43.43,41.61v1c-.67.61-2.82.38-3.75.17C38.56,40.73,42.46,41,43.43,41.61Z"/><path class="cls-2" d="M46.16,42c-.09.78-.53,1.2-1.54,1C43.29,41.79,45.71,40.42,46.16,42Z"/><path class="cls-2" d="M34.9,22c3-.84,5.67-.07,6.14,2.25a18.72,18.72,0,0,1-.51,7.11,4,4,0,0,1-4.27,2.43c-3.41-.41-4.43-6.61-3.41-9.89A2.77,2.77,0,0,1,34.9,22Zm-.51,3.64c1.35-.3,2.56-.75,2.9-2.08C35.47,23.4,34,23.63,34.39,25.65Zm.17,1.74c-.12,2.48.11,4.53,2,4.68,2.37.19,2.62-2.41,2.56-5.38C37.29,25.66,36.58,27.24,34.55,27.39Z"/><ellipse class="cls-1" cx="355.78" cy="34.83" rx="29.56" ry="30.04"/><path class="cls-2" d="M341.87,21.79c8.71.09,17.77-.18,26.26.14a26.5,26.5,0,0,1,.13,4.24c1.77-.49,2.64-4,4.85-4.11a3.18,3.18,0,0,1,2.83,2.74c0,2-4.29,5.18-5.79,6.71-.42.43-1.73,1.6-1.89,2.19-.52,1.94,0,5.6,0,7.66a73.63,73.63,0,0,1-.13,7.39c-8.53.23-18,.23-26.53,0-.31-8.58,0-17.75-.13-26.55A.69.69,0,0,1,341.87,21.79Zm1.08,1.37c-.32,7.85,0,16.29-.13,24.36,8-.09,16.34.18,24.1-.14-.34-3.68,0-9.15-.13-12.18a57.66,57.66,0,0,0-4.58,4.38c-2.69,2.73-4.81,6.12-9.29,5.75.11-3.94,2.1-5.42,4.31-7.66l6.46-6.57c.92-.94,2.87-2.6,3.1-3.56.35-1.46-.27-3,0-4.38Zm28,2.33a3.79,3.79,0,0,0,1.62,1.64c.71-.74,1.64-1.25,2-2.33C373.72,22.45,371.85,24.46,371,25.49Zm-1.08,1.09c-3.22,3.47-7.5,7.63-11,11.22-1.84,1.87-4,3.35-4,6,2.65-.73,4-2.55,5.79-4.38,3.71-3.77,7.29-7.61,10.91-11.08A6.11,6.11,0,0,0,369.88,26.58Z"/><path class="cls-2" d="M346,27c-.17-.73.56-.78.67-.82,1.64-.57,4.35-.14,7.14-.14,2,0,6.11-.39,6.06.69-.06,1.41-5.26.82-6.87.82C350.37,27.54,347.44,27.94,346,27Z"/><path class="cls-2" d="M363.55,26.45c.31,1.35-1.55,1.3-2,.68C361.16,25.89,363.07,26,363.55,26.45Z"/><path class="cls-2" d="M359.24,30.69c0,1.33-1.66.84-2.69.82s-2.58,0-3.77,0c-2.56,0-5.39.36-6.73-.41-.1-.67.35-.84.67-1,1.35-.48,4.26,0,6.6,0S358.16,29.74,359.24,30.69Z"/><path class="cls-2" d="M346.17,35.34c-.36-.43,0-1,.41-1.1H351c1,0,3.71-.47,3.91.55.25,1.3-2.95.82-4.17.82C348.9,35.62,347.22,35.82,346.17,35.34Z"/><path class="cls-2" d="M351.7,39.31c-1.3.52-4,.29-5.52.14a.84.84,0,0,1,.41-1.23C348.24,38.63,351.7,37.22,351.7,39.31Z"/></g></g></svg>