<?xml version="1.0" encoding="utf-8"?>
<!-- Generator: Adobe Illustrator 19.0.0, SVG Export Plug-In . SVG Version: 6.00 Build 0)  -->
<svg version="1.1" id="Слой_1" xmlns="http://www.w3.org/2000/svg" xmlns:xlink="http://www.w3.org/1999/xlink" x="0px" y="0px"
	 viewBox="0 0 34.1 34.2" style="enable-background:new 0 0 34.1 34.2;" xml:space="preserve">
<style type="text/css">
	.st0{fill:#FFFFFF;}
</style>
<g id="XMLID_67_">
	<g id="XMLID_113_">
		<path id="XMLID_118_" class="st0" d="M27,12.3c-0.1-0.4-1-0.3-1-0.3l-3,0c0,0-0.2,0-0.4,0.1c-0.2,0.1-0.3,0.3-0.3,0.3
			s-0.5,1.2-1.1,2.3c-1.3,2.2-1.9,2.4-2.1,2.2c-0.5-0.3-0.4-1.3-0.4-2c0-2.2,0.3-3.1-0.6-3.3c-0.3-0.1-0.6-0.1-1.4-0.1
			c-1.1,0-2,0-2.5,0.3c-0.3,0.2-0.6,0.5-0.4,0.6c0.2,0,0.6,0.1,0.9,0.4c0.3,0.4,0.3,1.3,0.3,1.3s0.2,2.6-0.4,2.9
			c-0.4,0.2-1-0.2-2.1-2.3c-0.6-1-1.1-2.2-1.1-2.2s-0.1-0.2-0.2-0.3C10.9,12,10.6,12,10.6,12l-2.8,0c0,0-0.4,0-0.6,0.2
			c-0.1,0.2,0,0.5,0,0.5s2.2,5.2,4.7,7.8c2.3,2.4,4.9,2.2,4.9,2.2H18c0,0,0.4,0,0.5-0.2c0.2-0.2,0.2-0.5,0.2-0.5s0-1.6,0.7-1.8
			c0.7-0.2,1.7,1.5,2.7,2.2c0.8,0.5,1.3,0.4,1.3,0.4l2.7,0c0,0,1.4-0.1,0.7-1.2c-0.1-0.1-0.4-0.8-2-2.3c-1.7-1.5-1.4-1.3,0.6-3.9
			C26.6,13.7,27.1,12.7,27,12.3z M33.3,11.9C31,4.9,24.4,0.1,17.1,0.1C9.7,0.1,3.1,4.9,0.8,11.9c-2.3,7,0.2,14.7,6.2,19
			c6,4.3,14.1,4.3,20,0C33,26.5,35.6,18.9,33.3,11.9z M26.2,29.6c-5.4,3.9-12.8,3.9-18.2,0c-5.4-3.9-7.7-10.9-5.6-17.3
			C4.4,6,10.3,1.7,17.1,1.7c6.7,0,12.7,4.3,14.8,10.7C33.9,18.7,31.6,25.7,26.2,29.6z"/>
	</g>
</g>
</svg>
